# xmcd CD database file
#
# Track frame offsets:
#	150
#	14460
#	25124
#	41075
#	53720
#	65551
#	75360
#	86450
#	101584
#	116652
#
# Disc length: 1690 seconds
#
# Revision: 0
# Processed by: cddbd v1.5.1PL0 Copyright (c) Steve Scherf et al.
# Submitted via: CDex 1.51
#
DISCID=7406980a
DTITLE=Various Artist - Country Round Up
DYEAR=1900
DGENRE=Country
TTITLE0=Bottles And Barstools-Jerry Lee Lewis
TTITLE1=Jukebox Charlie-Johnny Paycheck
TTITLE2=The Cotton Patch-Jeannie C. Riley
TTITLE3=Beautiful Lady-Jack Greene
TTITLE4=Oh Lonesome Me-Don Gibson
TTITLE5=Release Me_Barbara Mandrell
TTITLE6=Spend Some Time With Me-Don Williams
TTITLE7=Cold, Cold Heart-Jerry Lee Lewis
TTITLE8=Frisco-Johnny Lee
TTITLE9=Lonesome Number One-Don Gibson
EXTD=
EXTT0=
EXTT1=
EXTT2=
EXTT3=
EXTT4=
EXTT5=
EXTT6=
EXTT7=
EXTT8=
EXTT9=
PLAYORDER=
